<?xml version="1.0" encoding="utf-8"?>
<!-- Generator: Adobe Illustrator 24.1.0, SVG Export Plug-In . SVG Version: 6.00 Build 0)  -->
<svg version="1.1" id="Layer_1" xmlns="http://www.w3.org/2000/svg" xmlns:xlink="http://www.w3.org/1999/xlink" x="0px" y="0px"
	 viewBox="0 0 120 28" style="enable-background:new 0 0 120 28;" xml:space="preserve">
<style type="text/css">
	.st0{display:none;}
	.st1{display:inline;}
	.st2{fill:#2291FF;}
</style>
<g class="st0">
	<path class="st1" d="M17.5-19.5c0-0.5-0.2-0.8-0.5-1.1c-0.3-0.2-0.7-0.3-1.3-0.3s-1,0.1-1.2,0.3c-0.3,0.2-0.4,0.5-0.4,0.8
		c0,0.3,0.1,0.5,0.3,0.7c0.2,0.2,0.6,0.3,1.1,0.5c0.5,0.1,1,0.3,1.5,0.4s0.9,0.3,1.2,0.4c0.2,0.1,0.4,0.2,0.6,0.3
		c0.2,0.1,0.3,0.3,0.5,0.4c0.1,0.2,0.2,0.4,0.3,0.6s0.1,0.5,0.1,0.9c0,0.5-0.1,1-0.3,1.3s-0.4,0.7-0.8,0.9c-0.3,0.2-0.7,0.4-1.2,0.5
		s-0.9,0.2-1.5,0.2s-1.1-0.1-1.6-0.2s-0.8-0.2-1.2-0.5c-0.3-0.3-0.6-0.6-0.8-1S12-15.2,12-15.8h1.9c0,0.5,0.2,0.9,0.6,1.1
		c0.4,0.3,0.9,0.4,1.5,0.4s1-0.1,1.3-0.3s0.5-0.6,0.5-1c0-0.1,0-0.3-0.1-0.4c-0.1-0.1-0.1-0.2-0.2-0.3c-0.1-0.1-0.3-0.2-0.4-0.3
		c-0.2-0.1-0.4-0.2-0.7-0.2c-0.6-0.1-1.1-0.2-1.5-0.3s-0.8-0.2-1.1-0.4c-0.5-0.2-0.9-0.5-1.2-0.9s-0.4-0.8-0.4-1.4
		c0-0.4,0.1-0.8,0.2-1.2c0.1-0.4,0.4-0.7,0.6-0.9c0.3-0.3,0.6-0.4,1.1-0.6c0.4-0.1,0.9-0.2,1.5-0.2s1.1,0.1,1.6,0.2
		c0.5,0.1,0.8,0.4,1.2,0.6c0.3,0.3,0.6,0.6,0.7,1c0.2,0.4,0.3,0.8,0.3,1.2h-1.9V-19.5z"/>
	<path class="st1" d="M27.1-12.9l-1.1-4l-1.1,4H23l-2-6.9h1.9l1.1,4.4l1-4.4h1.8l1.1,4.4l1-4.4h1.9l-2,6.9H27.1z"/>
	<path class="st1" d="M33-20.6v-1.7h1.8v1.7H33z M33-12.9v-6.9h1.8v6.9H33z"/>
	<path class="st1" d="M37.8-12.9v-5.6h-1v-1.3h1c0-1.7,1-2.5,2.9-2.5v1.5c-0.2,0-0.4,0-0.6,0c-0.1,0-0.3,0.1-0.3,0.2
		c0,0.1-0.1,0.2-0.1,0.3s0,0.3,0,0.5h1.2v1.3h-1.2v5.6H37.8z"/>
	<path class="st1" d="M46.7-17.5h1.7v2c0,0.4-0.1,0.7-0.2,1s-0.3,0.6-0.5,0.9s-0.5,0.5-0.9,0.6c-0.3,0.1-0.8,0.2-1.3,0.2
		s-0.9-0.1-1.3-0.2s-0.6-0.4-0.9-0.6s-0.4-0.5-0.5-0.9s-0.2-0.7-0.2-1.1v-6.1h1.8v1.9h3.8v1.3h-3.8v2.8c0,0.4,0.1,0.8,0.2,1
		c0.2,0.2,0.4,0.4,0.8,0.4s0.6-0.1,0.8-0.4s0.3-0.6,0.3-1v-1.8H46.7z"/>
	<path class="st1" d="M50.7-12.9v-9.4h1.8v9.4H50.7z"/>
	<path class="st1" d="M56.4-15.9c0,0.5,0.2,0.9,0.5,1.2s0.6,0.5,1.1,0.5c0.3,0,0.6-0.1,0.8-0.2c0.2-0.1,0.4-0.3,0.4-0.6h1.9
		c-0.2,0.7-0.6,1.3-1.1,1.6c-0.5,0.4-1.2,0.6-1.9,0.6c-2.3,0-3.4-1.3-3.4-3.8c0-0.5,0.1-1,0.2-1.4s0.3-0.7,0.6-1
		c0.3-0.3,0.6-0.5,1-0.7c0.4-0.2,0.9-0.2,1.4-0.2c1.1,0,1.9,0.3,2.4,1c0.5,0.7,0.8,1.7,0.8,3.1h-4.7C56.4-15.8,56.4-15.9,56.4-15.9z
		 M59.3-17c0-0.3-0.1-0.5-0.1-0.7c0-0.2-0.2-0.4-0.3-0.5s-0.3-0.2-0.5-0.3s-0.3-0.1-0.5-0.1c-0.4,0-0.7,0.1-0.9,0.4
		s-0.5,0.7-0.5,1.2H59.3z"/>
	<path class="st1" d="M68.1-12.9v-0.8c-0.4,0.7-1.1,1-1.9,1c-0.4,0-0.8-0.1-1.2-0.3s-0.7-0.4-0.9-0.7c-0.3-0.3-0.5-0.7-0.6-1.2
		s-0.2-1-0.2-1.6c0-0.5,0.1-1,0.2-1.4s0.3-0.8,0.6-1.1c0.2-0.3,0.5-0.6,0.9-0.7c0.3-0.2,0.7-0.3,1.2-0.3c0.8,0,1.5,0.4,2,1.1v-3.4
		H70v9.4H68.1z M66.6-14.2c0.4,0,0.8-0.2,1.1-0.5c0.3-0.4,0.4-0.8,0.4-1.4c0-1.5-0.5-2.2-1.5-2.2S65-17.6,65-16.2
		c0,0.6,0.1,1.1,0.4,1.5S66.1-14.2,66.6-14.2z"/>
	<path class="st1" d="M77-13.8c-0.1,0.3-0.4,0.5-0.7,0.7c-0.3,0.2-0.7,0.3-1.2,0.3c-0.6,0-1-0.1-1.4-0.3s-0.7-0.5-0.9-0.8
		c-0.2-0.3-0.4-0.7-0.5-1.1s-0.2-0.9-0.2-1.3c0-0.5,0.1-1,0.2-1.5c0.2-0.4,0.4-0.8,0.6-1.1c0.3-0.3,0.6-0.6,1-0.7
		c0.4-0.2,0.8-0.3,1.2-0.3c0.9,0,1.5,0.3,1.9,1v-0.9h1.8v7c0,0.5-0.1,1-0.3,1.4c-0.2,0.4-0.4,0.7-0.7,1c-0.3,0.3-0.7,0.5-1.1,0.6
		s-0.9,0.2-1.3,0.2c-0.5,0-0.9-0.1-1.3-0.2s-0.8-0.3-1.1-0.6c-0.3-0.2-0.5-0.5-0.7-0.9S72-12.1,72-12.5h1.7c0,0.4,0.1,0.7,0.4,1
		s0.6,0.3,1.1,0.3s0.9-0.1,1.2-0.4c0.3-0.3,0.5-0.6,0.5-1.1v-1.1H77z M75.5-14.3c0.4,0,0.8-0.2,1.1-0.5s0.4-0.8,0.4-1.4
		c0-1.5-0.5-2.2-1.5-2.2s-1.6,0.7-1.6,2.1c0,0.6,0.1,1.1,0.4,1.5C74.7-14.5,75-14.3,75.5-14.3z"/>
	<path class="st1" d="M82.8-15.9c0,0.5,0.2,0.9,0.5,1.2s0.6,0.5,1.1,0.5c0.3,0,0.6-0.1,0.8-0.2c0.2-0.1,0.4-0.3,0.4-0.6h1.9
		c-0.2,0.7-0.6,1.3-1.1,1.6c-0.5,0.4-1.2,0.6-1.9,0.6c-2.3,0-3.4-1.3-3.4-3.8c0-0.5,0.1-1,0.2-1.4s0.4-0.8,0.7-1.1
		c0.3-0.3,0.6-0.5,1-0.7c0.4-0.2,0.9-0.2,1.4-0.2c1.1,0,1.9,0.3,2.4,1c0.5,0.7,0.8,1.7,0.8,3.1H82.8z M85.7-17
		c0-0.3-0.1-0.5-0.1-0.7c0-0.2-0.2-0.4-0.3-0.5s-0.3-0.2-0.4-0.3c-0.2-0.1-0.3-0.1-0.5-0.1c-0.4,0-0.7,0.1-0.9,0.4s-0.4,0.6-0.5,1.1
		h2.7C85.7-17.1,85.7-17,85.7-17z"/>
	<path class="st1" d="M89.7-12.9v-6.9h1.7v0.8c0.1-0.2,0.3-0.4,0.5-0.5c0.2-0.1,0.3-0.2,0.5-0.3s0.3-0.1,0.5-0.1s0.4,0,0.5,0h0.2
		v1.9c-0.2,0-0.3,0-0.5,0c-1.1,0-1.7,0.6-1.7,1.7v3.6h-1.7V-12.9z"/>
</g>
<g>
	<path d="M32.2,18.6h2.2c1,0,1.7,0.6,1.7,1.4c0,0.4-0.2,0.6-0.3,0.8c-0.1,0.1-0.2,0.2-0.3,0.2c0.2,0,0.3,0.1,0.5,0.2
		c0.2,0.2,0.5,0.5,0.5,1c0,0.8-0.6,1.5-1.8,1.5h-2.3v-5.1H32.2z M34.3,20.6c0.4,0,0.6-0.2,0.6-0.5s-0.2-0.5-0.6-0.5h-0.9v1H34.3z
		 M34.4,22.8c0.4,0,0.7-0.2,0.7-0.6s-0.2-0.6-0.7-0.6h-1.1v1.3H34.4z"/>
	<path d="M37.4,18.6h1v3c0,0.7,0.4,1.3,1.1,1.3s1.1-0.5,1.1-1.3v-3h1v3c0,1.4-0.9,2.2-2.2,2.2s-2.2-0.9-2.2-2.2V18.6z"/>
	<path d="M43.6,22.3c0.1,0.1,0.2,0.2,0.3,0.3c0.2,0.1,0.5,0.3,0.9,0.3c0.6,0,0.8-0.2,0.8-0.6c0-0.8-2.6-0.5-2.6-2.3
		c0-0.8,0.7-1.5,1.9-1.5c0.5,0,1,0.2,1.3,0.3c0.2,0.1,0.3,0.2,0.4,0.3L46,19.9c-0.1-0.1-0.2-0.1-0.2-0.2c-0.2-0.1-0.4-0.2-0.7-0.2
		c-0.5,0-0.7,0.2-0.7,0.5c0,0.8,2.6,0.5,2.6,2.3c0,0.8-0.7,1.6-2,1.6c-0.6,0-1.1-0.2-1.5-0.4c-0.2-0.1-0.3-0.2-0.5-0.4L43.6,22.3z"
		/>
	<path d="M47.9,18.6H49v5.1h-1.1V18.6z"/>
	<path d="M50.5,18.6h0.9l2.5,3.1v-3.1h1.1v5.1h-0.9l-2.5-3.1v3.1h-1.1V18.6z"/>
	<path d="M56.6,18.6h3.8v1h-2.7v0.9h2.1v0.9h-2.1v1.1h2.8v1h-3.9V18.6z"/>
	<path d="M61.9,22.3c0.1,0.1,0.2,0.2,0.3,0.3c0.2,0.1,0.5,0.3,0.9,0.3c0.6,0,0.8-0.2,0.8-0.6c0-0.8-2.6-0.5-2.6-2.3
		c0-0.8,0.7-1.5,1.9-1.5c0.5,0,1,0.2,1.3,0.3c0.2,0.1,0.3,0.2,0.4,0.3l-0.7,0.7c-0.1-0.1-0.2-0.1-0.2-0.2c-0.2-0.1-0.4-0.2-0.7-0.2
		c-0.5,0-0.7,0.2-0.7,0.5c0,0.8,2.6,0.5,2.6,2.3c0,0.8-0.7,1.6-2,1.6c-0.6,0-1.1-0.2-1.5-0.4c-0.2-0.1-0.3-0.2-0.5-0.4L61.9,22.3z"
		/>
	<path d="M66.4,22.3c0.1,0.1,0.2,0.2,0.3,0.3c0.2,0.1,0.5,0.3,0.9,0.3c0.6,0,0.8-0.2,0.8-0.6c0-0.8-2.6-0.5-2.6-2.3
		c0-0.8,0.7-1.5,1.9-1.5c0.5,0,1,0.2,1.3,0.3c0.2,0.1,0.3,0.2,0.4,0.3l-0.7,0.7c-0.1-0.1-0.2-0.1-0.2-0.2c-0.2-0.1-0.4-0.2-0.7-0.2
		c-0.5,0-0.7,0.2-0.7,0.5c0,0.8,2.6,0.5,2.6,2.3c0,0.8-0.7,1.6-2,1.6c-0.6,0-1.1-0.2-1.5-0.4c-0.2-0.1-0.3-0.2-0.5-0.4L66.4,22.3z"
		/>
	<path d="M72.6,22.3c0.1,0.1,0.2,0.2,0.3,0.3c0.2,0.1,0.5,0.3,0.9,0.3c0.6,0,0.8-0.2,0.8-0.6c0-0.8-2.6-0.5-2.6-2.3
		c0-0.8,0.7-1.5,1.9-1.5c0.5,0,1,0.2,1.3,0.3c0.2,0.1,0.3,0.2,0.4,0.3l-0.7,0.7c-0.1-0.1-0.2-0.1-0.2-0.2c-0.2-0.1-0.4-0.2-0.7-0.2
		c-0.5,0-0.7,0.2-0.7,0.5c0,0.8,2.6,0.5,2.6,2.3c0,0.8-0.7,1.6-2,1.6c-0.6,0-1.1-0.2-1.5-0.4c-0.2-0.1-0.3-0.2-0.5-0.4L72.6,22.3z"
		/>
	<path d="M79.4,18.5c1.6,0,2.8,1.3,2.8,2.7c0,1.5-1.1,2.7-2.8,2.7s-2.8-1.3-2.8-2.7C76.5,19.6,77.8,18.5,79.4,18.5z M79.4,22.8
		c0.9,0,1.7-0.7,1.7-1.7c0-0.9-0.7-1.7-1.7-1.7c-0.9,0-1.7,0.7-1.7,1.7C77.7,22,78.4,22.8,79.4,22.8z"/>
	<path d="M83.3,18.6h1.1v4.1h2.4v1h-3.4L83.3,18.6L83.3,18.6z"/>
	<path d="M87.5,18.6h1v3c0,0.7,0.4,1.3,1.1,1.3c0.7,0,1.1-0.5,1.1-1.3v-3h1v3c0,1.4-0.9,2.2-2.2,2.2c-1.3,0-2.2-0.9-2.2-2.2V18.6z"
		/>
	<path d="M94.4,19.6h-1.5v-1H97v1h-1.5v4.1h-1.1V19.6z"/>
	<path d="M97.9,18.6h1.1v5.1h-1.1V18.6z"/>
	<path d="M103,18.5c1.6,0,2.8,1.3,2.8,2.7c0,1.5-1.1,2.7-2.8,2.7s-2.8-1.4-2.8-2.8C100.2,19.6,101.5,18.5,103,18.5z M103,22.8
		c0.9,0,1.7-0.7,1.7-1.7c0-0.9-0.7-1.7-1.7-1.7c-0.9,0-1.7,0.7-1.7,1.7C101.4,22,102.1,22.8,103,22.8z"/>
	<path d="M107,18.6h0.9l2.5,3.1v-3.1h1.1v5.1h-0.9l-2.5-3.1v3.1H107V18.6z"/>
	<path d="M113.4,22.3c0.1,0.1,0.2,0.2,0.3,0.3c0.2,0.1,0.5,0.3,0.9,0.3c0.6,0,0.8-0.2,0.8-0.6c0-0.8-2.6-0.5-2.6-2.3
		c0-0.8,0.7-1.5,1.9-1.5c0.5,0,1,0.2,1.3,0.3c0.2,0.1,0.3,0.2,0.4,0.3l-0.7,0.7c-0.1-0.1-0.2-0.1-0.2-0.2c-0.2-0.1-0.4-0.2-0.7-0.2
		c-0.5,0-0.7,0.2-0.7,0.5c0,0.8,2.6,0.5,2.6,2.3c0,0.8-0.7,1.6-2,1.6c-0.6,0-1.1-0.2-1.5-0.4c-0.2-0.1-0.3-0.2-0.5-0.4L113.4,22.3z"
		/>
</g>
<path class="st2" d="M24.3,22.5c0.2-0.6,0.2-1.2,0.2-1.8c0-2.9-1.5-5.3-3.8-7.2h-2.1c1.6,2,2.5,4.5,2.4,7.1c0,2.5-1.3,5.6-3.5,6.2
	c-0.4,0.1-0.8,0.2-1.2,0.3c-5.5,0.8-7.7-9.6-5.2-12.7c1.4-1.8,3.4-2.2,6.3-2.2h9.8C27.7,15.8,26.7,19.6,24.3,22.5z M17.6,9.1
	c-4.7,0-6.7,0.5-8.8,2.6C5.4,15.2,5.3,23,11.4,26.9C4.3,25.4-0.2,18.5,1.3,11.3C2.8,4.2,9.7-0.3,16.9,1.2c4.3,0.9,7.9,3.9,9.5,8
	L17.6,9.1L17.6,9.1L17.6,9.1z"/>
<g>
	<path d="M36.6,13.7v-3.3h-2.8v3.3h-1.5V6.4h1.5v2.8h2.8V6.4h1.5v7.3H36.6z"/>
	<path d="M38.9,7.6V6.3h1.4v1.3H38.9z M38.9,13.7V8.3h1.4v5.4H38.9z"/>
	<path d="M44.8,13c-0.1,0.2-0.3,0.4-0.6,0.6c-0.3,0.1-0.6,0.2-0.9,0.2c-0.4,0-0.8-0.1-1.1-0.2s-0.5-0.4-0.7-0.6S41.1,12.3,41,12
		c-0.1-0.3-0.1-0.7-0.1-1c0-0.4,0.1-0.8,0.2-1.1c0.1-0.3,0.3-0.6,0.5-0.9c0.2-0.2,0.5-0.4,0.7-0.6c0.3-0.1,0.6-0.2,0.9-0.2
		c0.7,0,1.2,0.3,1.5,0.8V8.3h1.4v5.5c0,0.4-0.1,0.8-0.2,1.1c-0.1,0.3-0.3,0.6-0.6,0.8s-0.5,0.4-0.9,0.5s-0.7,0.2-1.1,0.2
		s-0.7-0.1-1-0.2s-0.6-0.3-0.8-0.5c-0.2-0.2-0.4-0.4-0.5-0.7c-0.1-0.3-0.2-0.6-0.2-0.9h1.3c0,0.3,0.1,0.6,0.3,0.8s0.5,0.3,0.9,0.3
		c0.4,0,0.7-0.1,1-0.3c0.3-0.2,0.4-0.5,0.4-0.9V13z M43.6,12.6c0.4,0,0.6-0.1,0.9-0.4s0.3-0.6,0.3-1.1c0-1.2-0.4-1.7-1.2-1.7
		s-1.2,0.5-1.2,1.6c0,0.5,0.1,0.9,0.3,1.2C43,12.5,43.3,12.6,43.6,12.6z"/>
	<path d="M50.4,13.7v-3.4c0-0.4-0.1-0.7-0.2-0.8s-0.4-0.2-0.7-0.2c-0.2,0-0.3,0-0.5,0.1s-0.3,0.2-0.4,0.3c-0.1,0.1-0.2,0.3-0.2,0.4
		c0,0.2-0.1,0.3-0.1,0.5v3.1H47V6.3h1.4V9c0.1-0.1,0.1-0.2,0.2-0.3c0.1-0.1,0.2-0.2,0.4-0.3c0.1-0.1,0.3-0.1,0.5-0.2
		c0.2,0,0.3-0.1,0.5-0.1c0.6,0,1,0.2,1.4,0.5c0.3,0.3,0.5,0.7,0.5,1.3v3.8H50.4z"/>
	<path d="M57,13.7v-6h-2.2V6.4h5.9v1.3h-2.2v6H57z"/>
	<path d="M61.5,11.4c0,0.4,0.1,0.7,0.4,1c0.2,0.2,0.5,0.4,0.9,0.4c0.2,0,0.4-0.1,0.6-0.2s0.3-0.3,0.3-0.4h1.5
		c-0.2,0.6-0.5,1-0.9,1.3c-0.4,0.3-0.9,0.5-1.5,0.5c-1.8,0-2.7-1-2.7-2.9c0-0.4,0.1-0.8,0.2-1.1s0.3-0.6,0.5-0.9
		c0.2-0.2,0.5-0.4,0.8-0.6c0.3-0.1,0.7-0.2,1.1-0.2c0.8,0,1.5,0.3,1.9,0.8s0.6,1.3,0.6,2.4H61.5z M63.8,10.5c0-0.2,0-0.4-0.1-0.5
		c-0.1-0.2-0.1-0.3-0.2-0.4c-0.1-0.1-0.2-0.2-0.4-0.2c-0.1,0-0.3-0.1-0.4-0.1c-0.3,0-0.5,0.1-0.7,0.3s-0.3,0.5-0.4,0.9H63.8z"/>
	<path d="M70.6,11.7c0,0.3-0.1,0.6-0.3,0.9c-0.1,0.3-0.3,0.5-0.5,0.7c-0.2,0.2-0.5,0.3-0.8,0.4c-0.3,0.1-0.6,0.2-0.9,0.2
		c-0.4,0-0.7-0.1-1-0.2c-0.3-0.1-0.6-0.3-0.8-0.5s-0.4-0.6-0.5-0.9s-0.2-0.8-0.2-1.3s0.1-0.9,0.2-1.3s0.3-0.6,0.5-0.9
		c0.2-0.2,0.5-0.4,0.8-0.5c0.3-0.1,0.7-0.2,1-0.2c0.4,0,0.7,0,1,0.1c0.3,0.1,0.5,0.2,0.8,0.4c0.2,0.2,0.4,0.4,0.5,0.7
		s0.2,0.5,0.2,0.9h-1.4c0-0.3-0.1-0.5-0.3-0.7c-0.2-0.2-0.4-0.2-0.7-0.2c-0.2,0-0.3,0-0.4,0.1c-0.1,0.1-0.2,0.1-0.3,0.3
		c-0.1,0.1-0.2,0.3-0.2,0.5s-0.1,0.4-0.1,0.7c0,0.6,0.1,1,0.3,1.3c0.2,0.3,0.5,0.4,0.7,0.4c0.3,0,0.5-0.1,0.7-0.2
		c0.2-0.2,0.3-0.4,0.3-0.7H70.6z"/>
	<path d="M74.6,13.7v-3.4c0-0.4-0.1-0.7-0.2-0.8c-0.1-0.2-0.4-0.2-0.7-0.2c-0.2,0-0.3,0-0.5,0.1c-0.1,0.1-0.3,0.2-0.4,0.3
		c-0.1,0.1-0.2,0.3-0.2,0.4s-0.1,0.3-0.1,0.5v3.1h-1.4V6.3h1.4V9c0.1-0.1,0.1-0.2,0.2-0.3s0.2-0.2,0.4-0.3c0.1-0.1,0.3-0.1,0.5-0.2
		c0.2,0,0.3-0.1,0.5-0.1c0.6,0,1,0.2,1.4,0.5C75.9,8.9,76,9.3,76,9.9v3.8H74.6z"/>
	<path d="M83.3,8.5c0-0.4-0.2-0.7-0.4-0.8c-0.2-0.2-0.6-0.3-1-0.3c-0.4,0-0.8,0.1-1,0.2c-0.2,0.1-0.3,0.4-0.3,0.6
		c0,0.2,0.1,0.4,0.3,0.6C81,9,81.3,9.1,81.7,9.2c0.4,0.1,0.8,0.2,1.2,0.3c0.4,0.1,0.7,0.2,1,0.3c0.2,0.1,0.3,0.2,0.5,0.3
		s0.3,0.2,0.4,0.4s0.2,0.3,0.2,0.5c0.1,0.2,0.1,0.4,0.1,0.7c0,0.4-0.1,0.8-0.2,1c-0.1,0.3-0.3,0.5-0.6,0.7c-0.3,0.2-0.6,0.3-0.9,0.4
		c-0.4,0.1-0.7,0.1-1.2,0.1c-0.5,0-0.9,0-1.2-0.1s-0.7-0.3-1-0.5c-0.3-0.2-0.5-0.5-0.6-0.8c-0.2-0.3-0.2-0.7-0.2-1.1h1.5
		c0,0.4,0.2,0.7,0.5,0.9c0.3,0.2,0.7,0.3,1.2,0.3c0.5,0,0.8-0.1,1.1-0.3c0.2-0.2,0.4-0.4,0.4-0.8c0-0.1,0-0.2,0-0.3
		c0-0.1-0.1-0.2-0.2-0.2c-0.1-0.1-0.2-0.1-0.3-0.2c-0.1-0.1-0.3-0.1-0.6-0.2c-0.5-0.1-0.8-0.2-1.1-0.3s-0.6-0.2-0.9-0.3
		C80,10,79.7,9.8,79.5,9.5s-0.3-0.7-0.3-1.1c0-0.3,0.1-0.6,0.2-0.9c0.1-0.3,0.3-0.5,0.5-0.7c0.2-0.2,0.5-0.4,0.8-0.5
		c0.3-0.1,0.7-0.2,1.2-0.2c0.5,0,0.9,0.1,1.2,0.2c0.4,0.1,0.7,0.3,0.9,0.5c0.2,0.2,0.4,0.5,0.6,0.8c0.1,0.3,0.2,0.6,0.2,1H83.3z"/>
	<path d="M88.9,13c-0.1,0.2-0.3,0.4-0.6,0.6c-0.3,0.1-0.6,0.2-0.9,0.2c-0.3,0-0.5,0-0.8-0.1c-0.2-0.1-0.5-0.2-0.6-0.4
		c-0.2-0.2-0.3-0.4-0.4-0.6c-0.1-0.2-0.1-0.5-0.1-0.8V8.3h1.4v3.3c0,0.7,0.3,1,0.9,1c0.3,0,0.6-0.1,0.8-0.3c0.2-0.2,0.3-0.4,0.3-0.7
		V8.3h1.4v5.6c0,0.4-0.1,0.7-0.2,1c-0.1,0.3-0.3,0.6-0.5,0.8c-0.2,0.2-0.5,0.4-0.8,0.5s-0.6,0.2-1,0.2c-0.8,0-1.4-0.2-1.8-0.6
		c-0.4-0.4-0.6-1-0.6-1.7h1.3c0,0.3,0.1,0.6,0.3,0.8c0.2,0.2,0.5,0.3,0.8,0.3c0.1,0,0.3,0,0.4-0.1s0.2-0.1,0.3-0.2s0.2-0.2,0.2-0.4
		s0.1-0.3,0.1-0.5V13z"/>
	<path d="M94.6,13.7v-3.3c0-0.4-0.1-0.7-0.2-0.8c-0.1-0.1-0.4-0.2-0.7-0.2c-0.7,0-1.1,0.4-1.1,1.2v3.1h-1.4V8.3h1.4v0.8
		c0.2-0.3,0.4-0.5,0.7-0.7c0.3-0.2,0.6-0.2,1.1-0.2c0.3,0,0.5,0,0.7,0.1c0.2,0.1,0.4,0.2,0.6,0.3c0.2,0.2,0.3,0.3,0.4,0.6
		S96,9.6,96,9.9v3.8H94.6z"/>
	<path d="M98,11.4c0,0.4,0.1,0.7,0.4,1c0.2,0.2,0.5,0.4,0.9,0.4c0.2,0,0.4-0.1,0.6-0.2s0.3-0.3,0.3-0.4h1.5c-0.2,0.6-0.5,1-0.9,1.3
		c-0.4,0.3-0.9,0.5-1.5,0.5c-1.8,0-2.7-1-2.7-2.9c0-0.4,0.1-0.8,0.2-1.1s0.3-0.6,0.5-0.9c0.2-0.2,0.5-0.4,0.8-0.6s0.7-0.2,1.1-0.2
		c0.8,0,1.5,0.3,1.9,0.8s0.6,1.3,0.6,2.4H98z M100.3,10.5c0-0.2,0-0.4-0.1-0.5c-0.1-0.2-0.1-0.3-0.2-0.4c-0.1-0.1-0.2-0.2-0.4-0.2
		c-0.1,0-0.3-0.1-0.4-0.1c-0.3,0-0.5,0.1-0.7,0.3s-0.3,0.5-0.4,0.9H100.3z"/>
	<path d="M102.3,13.7V8.3h1.3v0.6c0.1-0.2,0.2-0.3,0.4-0.4c0.1-0.1,0.3-0.2,0.4-0.2c0.1-0.1,0.3-0.1,0.4-0.1c0.1,0,0.3,0,0.4,0h0.2
		v1.5c-0.1,0-0.3,0-0.4,0c-0.9,0-1.3,0.4-1.3,1.3v2.8H102.3z"/>
	<path d="M109.5,13c-0.1,0.2-0.3,0.4-0.6,0.6c-0.3,0.1-0.6,0.2-0.9,0.2c-0.4,0-0.8-0.1-1.1-0.2c-0.3-0.2-0.5-0.4-0.7-0.6
		c-0.2-0.3-0.3-0.6-0.4-0.9c-0.1-0.3-0.1-0.7-0.1-1c0-0.4,0.1-0.8,0.2-1.1c0.1-0.3,0.3-0.6,0.5-0.9s0.5-0.4,0.7-0.6s0.6-0.2,0.9-0.2
		c0.7,0,1.2,0.3,1.5,0.8V8.3h1.4v5.5c0,0.4-0.1,0.8-0.2,1.1c-0.1,0.3-0.3,0.6-0.6,0.8s-0.5,0.4-0.9,0.5s-0.7,0.2-1.1,0.2
		s-0.7-0.1-1-0.2c-0.3-0.1-0.6-0.3-0.8-0.5c-0.2-0.2-0.4-0.4-0.5-0.7c-0.1-0.3-0.2-0.6-0.2-0.9h1.3c0,0.3,0.1,0.6,0.3,0.8
		c0.2,0.2,0.5,0.3,0.9,0.3c0.4,0,0.7-0.1,1-0.3s0.4-0.5,0.4-0.9V13z M108.4,12.6c0.4,0,0.6-0.1,0.9-0.4c0.2-0.3,0.3-0.6,0.3-1.1
		c0-1.2-0.4-1.7-1.2-1.7c-0.8,0-1.2,0.5-1.2,1.6c0,0.5,0.1,0.9,0.3,1.2C107.7,12.5,108,12.6,108.4,12.6z"/>
	<path d="M115.2,13c-0.1,0.2-0.3,0.4-0.6,0.6c-0.3,0.1-0.6,0.2-0.9,0.2c-0.3,0-0.5,0-0.8-0.1c-0.2-0.1-0.5-0.2-0.6-0.4
		c-0.2-0.2-0.3-0.4-0.4-0.6c-0.1-0.2-0.1-0.5-0.1-0.8V8.3h1.4v3.3c0,0.7,0.3,1,0.9,1c0.3,0,0.6-0.1,0.8-0.3c0.2-0.2,0.3-0.4,0.3-0.7
		V8.3h1.4v5.6c0,0.4-0.1,0.7-0.2,1c-0.1,0.3-0.3,0.6-0.5,0.8c-0.2,0.2-0.5,0.4-0.8,0.5s-0.6,0.2-1,0.2c-0.8,0-1.4-0.2-1.8-0.6
		c-0.4-0.4-0.6-1-0.6-1.7h1.3c0,0.3,0.1,0.6,0.3,0.8c0.2,0.2,0.5,0.3,0.8,0.3c0.1,0,0.3,0,0.4-0.1s0.2-0.1,0.3-0.2s0.2-0.2,0.2-0.4
		s0.1-0.3,0.1-0.5V13z"/>
</g>
</svg>
